<svg xmlns="http://www.w3.org/2000/svg" width="256" height="256" viewBox="0 0 100 100"><rect width="100" height="100" rx="20" fill="#111111"></rect><path fill="#dddddd" d="M29.62 23.41Q38.04 23.41 42.38 27.20Q46.72 30.99 46.72 38.13L46.72 38.13Q46.72 45.28 42.38 49.08Q38.04 52.89 29.62 52.89L29.62 52.89L24.13 52.89L24.13 59.38L32.07 59.38Q32.95 59.38 33.43 59.69Q33.91 60.00 34.14 60.80Q34.38 61.61 34.38 63.15L34.38 63.15Q34.38 64.69 34.14 65.49Q33.91 66.30 33.43 66.59Q32.95 66.88 32.07 66.88L32.07 66.88L9.59 66.88Q8.71 66.88 8.23 66.59Q7.76 66.30 7.52 65.49Q7.28 64.69 7.28 63.15L7.28 63.15Q7.28 61.61 7.52 60.80Q7.76 60.00 8.23 59.69Q8.71 59.38 9.59 59.38L9.59 59.38L14.97 59.38L14.97 30.92L9.59 30.92Q8.71 30.92 8.23 30.63Q7.76 30.33 7.52 29.53Q7.28 28.72 7.28 27.19L7.28 27.19Q7.28 25.65 7.52 24.84Q7.76 24.04 8.23 23.72Q8.71 23.41 9.59 23.41L9.59 23.41L29.62 23.41ZM24.13 31.29L24.13 45.02L28.49 45.02Q32.84 45.02 35.06 43.33Q37.27 41.65 37.27 38.13L37.27 38.13Q37.27 34.62 35.06 32.95Q32.84 31.29 28.49 31.29L28.49 31.29L24.13 31.29ZM72.54 22.61Q78.55 22.61 83.12 25.21Q87.70 27.81 90.21 32.57Q92.72 37.33 92.72 43.66L92.72 43.66Q92.72 50 90.21 54.78Q87.70 59.56 83.12 62.16Q78.55 64.76 72.54 64.76L72.54 64.76Q71.62 64.76 70.89 64.69L70.89 64.69L67.01 68.57Q69.87 67.50 72.72 67.50L72.72 67.50Q73.86 67.50 75.12 67.67Q76.39 67.83 77.52 68.05L77.52 68.05Q78.55 68.24 79.63 68.40Q80.71 68.57 81.66 68.57L81.66 68.57Q84.52 68.57 87.26 67.10L87.26 67.10Q87.70 66.88 88.18 66.88L88.18 66.88Q88.98 66.88 89.77 67.54Q90.56 68.20 91.11 69.34L91.11 69.34Q91.80 70.73 91.80 71.86L91.80 71.86Q91.80 73.40 90.52 74.35L90.52 74.35Q88.43 75.89 86.44 76.53Q84.44 77.17 82.35 77.17L82.35 77.17Q81.04 77.17 79.66 76.97Q78.29 76.77 76.42 76.40L76.42 76.40Q74.04 75.96 72.52 75.76Q71.00 75.56 69.32 75.56L69.32 75.56Q65.00 75.56 60.93 77.28L60.93 77.28Q60.71 77.39 60.42 77.39L60.42 77.39Q59.72 77.39 58.95 76.73Q58.18 76.07 57.64 75.05L57.64 75.05Q56.83 73.62 56.83 72.34L56.83 72.34Q56.83 71.24 57.45 70.62L57.45 70.62L64.34 63.29Q58.73 61.06 55.55 55.93Q52.36 50.81 52.36 43.66L52.36 43.66Q52.36 37.33 54.87 32.57Q57.38 27.81 61.96 25.21Q66.53 22.61 72.54 22.61L72.54 22.61ZM72.54 30.92Q67.49 30.92 64.83 34.25Q62.18 37.59 62.18 43.66L62.18 43.66Q62.18 49.74 64.83 53.09Q67.49 56.45 72.54 56.45L72.54 56.45Q77.59 56.45 80.25 53.09Q82.90 49.74 82.90 43.66L82.90 43.66Q82.90 37.59 80.25 34.25Q77.59 30.92 72.54 30.92L72.54 30.92Z"></path></svg>