<svg xmlns="http://www.w3.org/2000/svg" width="256" height="256" viewBox="0 0 100 100"><rect width="100" height="100" rx="20" fill="#f8e71c"></rect><path fill="#000000" d="M22.94 19.79L22.94 70.09L44.36 70.09L44.36 80.21L10.74 80.21L10.74 19.79L22.94 19.79ZM76.94 64.36L76.94 64.36Q76.94 60.67 75.05 58.78Q73.16 56.89 68.18 54.86L68.18 54.86Q59.09 51.41 55.10 46.78Q51.12 42.16 51.12 35.85L51.12 35.85Q51.12 28.21 56.54 23.58Q61.95 18.96 70.30 18.96L70.30 18.96Q75.86 18.96 80.21 21.30Q84.57 23.65 86.92 27.92Q89.26 32.19 89.26 37.63L89.26 37.63L77.10 37.63Q77.10 33.40 75.30 31.18Q73.49 28.96 70.09 28.96L70.09 28.96Q66.89 28.96 65.11 30.85Q63.32 32.73 63.32 35.93L63.32 35.93Q63.32 38.42 65.31 40.43Q67.31 42.45 72.37 44.60L72.37 44.60Q81.21 47.80 85.22 52.45Q89.22 57.10 89.22 64.28L89.22 64.28Q89.22 72.16 84.20 76.60Q79.18 81.04 70.54 81.04L70.54 81.04Q64.69 81.04 59.88 78.64Q55.06 76.23 52.34 71.75Q49.63 67.27 49.63 61.16L49.63 61.16L61.87 61.16Q61.87 66.39 63.90 68.76Q65.94 71.13 70.54 71.13L70.54 71.13Q76.94 71.13 76.94 64.36Z"></path></svg>